<mxfile host="app.diagrams.net" modified="2023-06-07T00:36:40.205Z" agent="Mozilla/5.0 (Windows NT 10.0; Win64; x64) AppleWebKit/537.36 (KHTML, like Gecko) Chrome/114.0.0.0 Safari/537.36" etag="QiXFghjE2a5T9yrLUXED" version="21.3.7" type="device">
  <diagram id="C5RBs43oDa-KdzZeNtuy" name="Page-1">
    <mxGraphModel dx="1247" dy="1833" grid="1" gridSize="10" guides="1" tooltips="1" connect="1" arrows="1" fold="1" page="1" pageScale="1" pageWidth="827" pageHeight="1169" math="0" shadow="0">
      <root>
        <mxCell id="WIyWlLk6GJQsqaUBKTNV-0" />
        <mxCell id="WIyWlLk6GJQsqaUBKTNV-1" parent="WIyWlLk6GJQsqaUBKTNV-0" />
        <mxCell id="Oui1at55QBpjAnhqmStP-2" value="&lt;p style=&quot;margin:0px;margin-top:4px;text-align:center;&quot;&gt;&lt;i&gt;&amp;lt;&amp;lt;Interface&amp;gt;&amp;gt;&lt;/i&gt;&lt;br&gt;&lt;b&gt;Player&lt;/b&gt;&lt;/p&gt;&lt;hr size=&quot;1&quot;&gt;&lt;p style=&quot;margin:0px;margin-left:4px;&quot;&gt;+ setup(int, int, Map&amp;lt;ShipType, Integer&amp;gt; - List&amp;lt;Ship&amp;gt;&lt;br&gt;+ takeShots() - List&amp;lt;Coord&amp;gt;&lt;/p&gt;&lt;p style=&quot;margin:0px;margin-left:4px;&quot;&gt;+ reportDamage(List&amp;lt;Coord&amp;gt;) - List&amp;lt;Coord&amp;gt;&lt;/p&gt;&lt;p style=&quot;margin:0px;margin-left:4px;&quot;&gt;+ successfulHits(List&amp;lt;Coord&amp;gt;) - void&lt;/p&gt;&lt;p style=&quot;margin:0px;margin-left:4px;&quot;&gt;+ endGame(GameResult, String) - void&lt;/p&gt;" style="verticalAlign=top;align=left;overflow=fill;fontSize=12;fontFamily=Helvetica;html=1;whiteSpace=wrap;" parent="WIyWlLk6GJQsqaUBKTNV-1" vertex="1">
          <mxGeometry x="150" y="370" width="310" height="130" as="geometry" />
        </mxCell>
        <mxCell id="Oui1at55QBpjAnhqmStP-3" value="&lt;p style=&quot;margin:0px;margin-top:4px;text-align:center;&quot;&gt;&lt;b&gt;PlayerImpl&lt;/b&gt;&lt;/p&gt;&lt;hr size=&quot;1&quot;&gt;&lt;p style=&quot;border-color: var(--border-color); margin: 0px 0px 0px 4px;&quot;&gt;+ setup(int, int, Map&amp;lt;ShipType, Integer&amp;gt; - List&amp;lt;Ship&amp;gt;&lt;br style=&quot;border-color: var(--border-color);&quot;&gt;+ takeShots() - List&amp;lt;Coord&amp;gt;&lt;/p&gt;&lt;p style=&quot;border-color: var(--border-color); margin: 0px 0px 0px 4px;&quot;&gt;+ reportDamage(List&amp;lt;Coord&amp;gt;) - List&amp;lt;Coord&amp;gt;&lt;/p&gt;&lt;p style=&quot;border-color: var(--border-color); margin: 0px 0px 0px 4px;&quot;&gt;+ successfulHits(List&amp;lt;Coord&amp;gt;) - void&lt;/p&gt;&lt;p style=&quot;border-color: var(--border-color); margin: 0px 0px 0px 4px;&quot;&gt;+ endGame(GameResult, String) - void&lt;/p&gt;" style="verticalAlign=top;align=left;overflow=fill;fontSize=12;fontFamily=Helvetica;html=1;whiteSpace=wrap;" parent="WIyWlLk6GJQsqaUBKTNV-1" vertex="1">
          <mxGeometry x="150" y="550" width="310" height="120" as="geometry" />
        </mxCell>
        <mxCell id="Oui1at55QBpjAnhqmStP-14" value="" style="endArrow=block;dashed=1;endFill=0;endSize=12;html=1;rounded=0;exitX=0.5;exitY=1;exitDx=0;exitDy=0;entryX=0.5;entryY=0;entryDx=0;entryDy=0;" parent="WIyWlLk6GJQsqaUBKTNV-1" source="Oui1at55QBpjAnhqmStP-2" target="Oui1at55QBpjAnhqmStP-3" edge="1">
          <mxGeometry width="160" relative="1" as="geometry">
            <mxPoint x="270" y="620" as="sourcePoint" />
            <mxPoint x="430" y="620" as="targetPoint" />
          </mxGeometry>
        </mxCell>
        <mxCell id="Oui1at55QBpjAnhqmStP-16" value="&lt;p style=&quot;margin:0px;margin-top:4px;text-align:center;text-decoration:underline;&quot;&gt;&lt;b&gt;Object:ShipType&lt;/b&gt;&lt;/p&gt;&lt;hr&gt;&lt;p style=&quot;margin:0px;margin-left:8px;&quot;&gt;Carrier = (6, &quot;C)&lt;/p&gt;&lt;p style=&quot;margin:0px;margin-left:8px;&quot;&gt;Battleship = (5, &quot;B&quot;)&lt;/p&gt;&lt;p style=&quot;margin:0px;margin-left:8px;&quot;&gt;Destroyer(4, &quot;D&quot;)&lt;/p&gt;&lt;p style=&quot;margin:0px;margin-left:8px;&quot;&gt;Submarine(3, &quot;S&quot;)&lt;/p&gt;" style="verticalAlign=top;align=left;overflow=fill;fontSize=12;fontFamily=Helvetica;html=1;whiteSpace=wrap;" parent="WIyWlLk6GJQsqaUBKTNV-1" vertex="1">
          <mxGeometry x="650" y="620" width="160" height="100" as="geometry" />
        </mxCell>
        <mxCell id="Oui1at55QBpjAnhqmStP-17" value="Ship" style="swimlane;fontStyle=1;align=center;verticalAlign=top;childLayout=stackLayout;horizontal=1;startSize=26;horizontalStack=0;resizeParent=1;resizeParentMax=0;resizeLast=0;collapsible=1;marginBottom=0;whiteSpace=wrap;html=1;" parent="WIyWlLk6GJQsqaUBKTNV-1" vertex="1">
          <mxGeometry x="520" y="380" width="190" height="130" as="geometry" />
        </mxCell>
        <mxCell id="Oui1at55QBpjAnhqmStP-18" value="+ ship: ShipType&lt;br&gt;+ start: Coord&lt;br&gt;+ hitmap: Map&amp;lt;Coord, Boolean&amp;gt;" style="text;strokeColor=none;fillColor=none;align=left;verticalAlign=top;spacingLeft=4;spacingRight=4;overflow=hidden;rotatable=0;points=[[0,0.5],[1,0.5]];portConstraint=eastwest;whiteSpace=wrap;html=1;" parent="Oui1at55QBpjAnhqmStP-17" vertex="1">
          <mxGeometry y="26" width="190" height="54" as="geometry" />
        </mxCell>
        <mxCell id="Oui1at55QBpjAnhqmStP-19" value="" style="line;strokeWidth=1;fillColor=none;align=left;verticalAlign=middle;spacingTop=-1;spacingLeft=3;spacingRight=3;rotatable=0;labelPosition=right;points=[];portConstraint=eastwest;strokeColor=inherit;" parent="Oui1at55QBpjAnhqmStP-17" vertex="1">
          <mxGeometry y="80" width="190" height="8" as="geometry" />
        </mxCell>
        <mxCell id="Oui1at55QBpjAnhqmStP-20" value="+ getStart(): Coord&lt;br&gt;+ getEnd(): Coord" style="text;strokeColor=none;fillColor=none;align=left;verticalAlign=top;spacingLeft=4;spacingRight=4;overflow=hidden;rotatable=0;points=[[0,0.5],[1,0.5]];portConstraint=eastwest;whiteSpace=wrap;html=1;" parent="Oui1at55QBpjAnhqmStP-17" vertex="1">
          <mxGeometry y="88" width="190" height="42" as="geometry" />
        </mxCell>
        <mxCell id="Oui1at55QBpjAnhqmStP-21" value="" style="endArrow=open;endFill=1;endSize=12;html=1;rounded=0;exitX=1;exitY=0.5;exitDx=0;exitDy=0;entryX=-0.003;entryY=0.756;entryDx=0;entryDy=0;entryPerimeter=0;" parent="WIyWlLk6GJQsqaUBKTNV-1" source="Oui1at55QBpjAnhqmStP-3" target="Oui1at55QBpjAnhqmStP-18" edge="1">
          <mxGeometry width="160" relative="1" as="geometry">
            <mxPoint x="370" y="600" as="sourcePoint" />
            <mxPoint x="530" y="600" as="targetPoint" />
          </mxGeometry>
        </mxCell>
        <mxCell id="Oui1at55QBpjAnhqmStP-24" value="Model" style="swimlane;fontStyle=1;align=center;verticalAlign=top;childLayout=stackLayout;horizontal=1;startSize=26;horizontalStack=0;resizeParent=1;resizeParentMax=0;resizeLast=0;collapsible=1;marginBottom=0;whiteSpace=wrap;html=1;" parent="WIyWlLk6GJQsqaUBKTNV-1" vertex="1">
          <mxGeometry x="20" y="-20" width="320" height="350" as="geometry" />
        </mxCell>
        <mxCell id="Oui1at55QBpjAnhqmStP-25" value="+ player1: Player&lt;br&gt;+ player2: Player&lt;br&gt;+ player1Ships: List&amp;lt;Ship&amp;gt;&lt;br&gt;+ player2Ships: List&amp;lt;Ship&amp;gt;&lt;br&gt;+ player1Board: String[][]&lt;br&gt;+ player2Board: String[][]" style="text;strokeColor=none;fillColor=none;align=left;verticalAlign=top;spacingLeft=4;spacingRight=4;overflow=hidden;rotatable=0;points=[[0,0.5],[1,0.5]];portConstraint=eastwest;whiteSpace=wrap;html=1;" parent="Oui1at55QBpjAnhqmStP-24" vertex="1">
          <mxGeometry y="26" width="320" height="94" as="geometry" />
        </mxCell>
        <mxCell id="Oui1at55QBpjAnhqmStP-26" value="" style="line;strokeWidth=1;fillColor=none;align=left;verticalAlign=middle;spacingTop=-1;spacingLeft=3;spacingRight=3;rotatable=0;labelPosition=right;points=[];portConstraint=eastwest;strokeColor=inherit;" parent="Oui1at55QBpjAnhqmStP-24" vertex="1">
          <mxGeometry y="120" width="320" height="8" as="geometry" />
        </mxCell>
        <mxCell id="Oui1at55QBpjAnhqmStP-27" value="+ initBoard(int, int): void&lt;br&gt;+generateBoardAndShip(int, int, Map&amp;lt;ShipType, Integer&amp;gt;): void&lt;br&gt;+ markBoard(List&amp;lt;Ship&amp;gt;): void&lt;br&gt;+ markHorBoard(String, int, int, int): void&lt;br&gt;+ markVertBoard(String, int, int, int): void&lt;br&gt;+ updateShots(List&amp;lt;Coord&amp;gt;, List&amp;lt;Coord&amp;gt;): void&lt;br&gt;+ updateDamage(List&amp;lt;Coord&amp;gt;, List&amp;lt;Coord&amp;gt;): void&lt;br&gt;+&amp;nbsp;updateShipList(): void&lt;br&gt;+ checkGameState(): boolean&lt;br&gt;+ viewPlayerMap(): String[][]&lt;br&gt;+ viewOpponentMap(): String[][]&lt;br&gt;+ getPlayer1ShipSize(): int&lt;br&gt;+ getPlayer2ShipSize(): int" style="text;strokeColor=none;fillColor=none;align=left;verticalAlign=top;spacingLeft=4;spacingRight=4;overflow=hidden;rotatable=0;points=[[0,0.5],[1,0.5]];portConstraint=eastwest;whiteSpace=wrap;html=1;" parent="Oui1at55QBpjAnhqmStP-24" vertex="1">
          <mxGeometry y="128" width="320" height="222" as="geometry" />
        </mxCell>
        <mxCell id="Oui1at55QBpjAnhqmStP-28" value="View" style="swimlane;fontStyle=1;align=center;verticalAlign=top;childLayout=stackLayout;horizontal=1;startSize=26;horizontalStack=0;resizeParent=1;resizeParentMax=0;resizeLast=0;collapsible=1;marginBottom=0;whiteSpace=wrap;html=1;" parent="WIyWlLk6GJQsqaUBKTNV-1" vertex="1">
          <mxGeometry x="414" y="160" width="220" height="160" as="geometry" />
        </mxCell>
        <mxCell id="Oui1at55QBpjAnhqmStP-30" value="" style="line;strokeWidth=1;fillColor=none;align=left;verticalAlign=middle;spacingTop=-1;spacingLeft=3;spacingRight=3;rotatable=0;labelPosition=right;points=[];portConstraint=eastwest;strokeColor=inherit;" parent="Oui1at55QBpjAnhqmStP-28" vertex="1">
          <mxGeometry y="26" width="220" height="8" as="geometry" />
        </mxCell>
        <mxCell id="Oui1at55QBpjAnhqmStP-31" value="+ printBoard(String[][], String[][]): void&lt;br&gt;+ printBoardSetup(): void&lt;br&gt;+ printShipSetup(): void&lt;br&gt;+ printErrorMessage(): void&lt;br&gt;+ printShotCount(int, String): void&lt;br&gt;+printReport(List&amp;lt;Coord&amp;gt;,List&amp;lt;Coord&amp;gt;, List&amp;lt;Coord&amp;gt;,List&amp;lt;Coord&amp;gt;)&lt;br&gt;+ endGame(boolean): void" style="text;strokeColor=none;fillColor=none;align=left;verticalAlign=top;spacingLeft=4;spacingRight=4;overflow=hidden;rotatable=0;points=[[0,0.5],[1,0.5]];portConstraint=eastwest;whiteSpace=wrap;html=1;" parent="Oui1at55QBpjAnhqmStP-28" vertex="1">
          <mxGeometry y="34" width="220" height="126" as="geometry" />
        </mxCell>
        <mxCell id="Oui1at55QBpjAnhqmStP-36" value="Controller" style="swimlane;fontStyle=1;align=center;verticalAlign=top;childLayout=stackLayout;horizontal=1;startSize=26;horizontalStack=0;resizeParent=1;resizeParentMax=0;resizeLast=0;collapsible=1;marginBottom=0;whiteSpace=wrap;html=1;" parent="WIyWlLk6GJQsqaUBKTNV-1" vertex="1">
          <mxGeometry x="360" y="-170" width="370" height="310" as="geometry" />
        </mxCell>
        <mxCell id="Oui1at55QBpjAnhqmStP-37" value="+ read: Readable&lt;br&gt;+ scanner: Scanner&lt;br&gt;+ model: Model&lt;br&gt;+ maxHeight: int&lt;br&gt;+ maxWidth: int&lt;br&gt;+ ai: AIPlayer&lt;br&gt;+ player1: Player&lt;br&gt;+ player2: Player" style="text;strokeColor=none;fillColor=none;align=left;verticalAlign=top;spacingLeft=4;spacingRight=4;overflow=hidden;rotatable=0;points=[[0,0.5],[1,0.5]];portConstraint=eastwest;whiteSpace=wrap;html=1;" parent="Oui1at55QBpjAnhqmStP-36" vertex="1">
          <mxGeometry y="26" width="370" height="124" as="geometry" />
        </mxCell>
        <mxCell id="Oui1at55QBpjAnhqmStP-38" value="" style="line;strokeWidth=1;fillColor=none;align=left;verticalAlign=middle;spacingTop=-1;spacingLeft=3;spacingRight=3;rotatable=0;labelPosition=right;points=[];portConstraint=eastwest;strokeColor=inherit;" parent="Oui1at55QBpjAnhqmStP-36" vertex="1">
          <mxGeometry y="150" width="370" height="8" as="geometry" />
        </mxCell>
        <mxCell id="Oui1at55QBpjAnhqmStP-39" value="+ run(): void&lt;br&gt;+ end(): void&lt;br&gt;+ setup(): void&lt;br&gt;+ generatePlayers(): void&lt;br&gt;+ makeShipList(ArrayList&amp;lt;Integer&amp;gt;): Map&amp;lt;ShipType, Integer&amp;gt;&lt;br&gt;+ checkInputShips(ArrayList&amp;lt;Integer&amp;gt;): boolean&lt;br&gt;+ game(): void&lt;br&gt;+ getShot(): Coord&lt;br&gt;+ validShot(ArrayList&amp;lt;Integer&amp;gt;): boolean&lt;br&gt;+ readInts(int): ArrayList&amp;lt;Integer&amp;gt;" style="text;strokeColor=none;fillColor=none;align=left;verticalAlign=top;spacingLeft=4;spacingRight=4;overflow=hidden;rotatable=0;points=[[0,0.5],[1,0.5]];portConstraint=eastwest;whiteSpace=wrap;html=1;" parent="Oui1at55QBpjAnhqmStP-36" vertex="1">
          <mxGeometry y="158" width="370" height="152" as="geometry" />
        </mxCell>
        <mxCell id="Oui1at55QBpjAnhqmStP-41" value="" style="endArrow=open;endFill=1;endSize=12;html=1;rounded=0;exitX=0.498;exitY=0.976;exitDx=0;exitDy=0;exitPerimeter=0;entryX=0.5;entryY=0;entryDx=0;entryDy=0;" parent="WIyWlLk6GJQsqaUBKTNV-1" source="Oui1at55QBpjAnhqmStP-20" target="Oui1at55QBpjAnhqmStP-16" edge="1">
          <mxGeometry width="160" relative="1" as="geometry">
            <mxPoint x="360" y="480" as="sourcePoint" />
            <mxPoint x="520" y="480" as="targetPoint" />
          </mxGeometry>
        </mxCell>
        <mxCell id="Oui1at55QBpjAnhqmStP-42" value="" style="endArrow=open;endFill=1;endSize=12;html=1;rounded=0;exitX=1;exitY=1;exitDx=0;exitDy=0;entryX=0;entryY=0.5;entryDx=0;entryDy=0;" parent="WIyWlLk6GJQsqaUBKTNV-1" source="Oui1at55QBpjAnhqmStP-3" target="Oui1at55QBpjAnhqmStP-16" edge="1">
          <mxGeometry width="160" relative="1" as="geometry">
            <mxPoint x="360" y="480" as="sourcePoint" />
            <mxPoint x="520" y="480" as="targetPoint" />
          </mxGeometry>
        </mxCell>
        <mxCell id="Oui1at55QBpjAnhqmStP-43" value="Coords" style="swimlane;fontStyle=1;align=center;verticalAlign=top;childLayout=stackLayout;horizontal=1;startSize=26;horizontalStack=0;resizeParent=1;resizeParentMax=0;resizeLast=0;collapsible=1;marginBottom=0;whiteSpace=wrap;html=1;" parent="WIyWlLk6GJQsqaUBKTNV-1" vertex="1">
          <mxGeometry x="490" y="830" width="160" height="110" as="geometry" />
        </mxCell>
        <mxCell id="Oui1at55QBpjAnhqmStP-44" value="+ x: int&lt;br&gt;+ y: int" style="text;strokeColor=none;fillColor=none;align=left;verticalAlign=top;spacingLeft=4;spacingRight=4;overflow=hidden;rotatable=0;points=[[0,0.5],[1,0.5]];portConstraint=eastwest;whiteSpace=wrap;html=1;" parent="Oui1at55QBpjAnhqmStP-43" vertex="1">
          <mxGeometry y="26" width="160" height="34" as="geometry" />
        </mxCell>
        <mxCell id="Oui1at55QBpjAnhqmStP-45" value="" style="line;strokeWidth=1;fillColor=none;align=left;verticalAlign=middle;spacingTop=-1;spacingLeft=3;spacingRight=3;rotatable=0;labelPosition=right;points=[];portConstraint=eastwest;strokeColor=inherit;" parent="Oui1at55QBpjAnhqmStP-43" vertex="1">
          <mxGeometry y="60" width="160" height="8" as="geometry" />
        </mxCell>
        <mxCell id="Oui1at55QBpjAnhqmStP-46" value="+ getX(): int&lt;br&gt;+ getY(): int" style="text;strokeColor=none;fillColor=none;align=left;verticalAlign=top;spacingLeft=4;spacingRight=4;overflow=hidden;rotatable=0;points=[[0,0.5],[1,0.5]];portConstraint=eastwest;whiteSpace=wrap;html=1;" parent="Oui1at55QBpjAnhqmStP-43" vertex="1">
          <mxGeometry y="68" width="160" height="42" as="geometry" />
        </mxCell>
        <mxCell id="Oui1at55QBpjAnhqmStP-47" value="" style="endArrow=open;endFill=1;endSize=12;html=1;rounded=0;exitX=0.858;exitY=1.018;exitDx=0;exitDy=0;exitPerimeter=0;entryX=0.5;entryY=0;entryDx=0;entryDy=0;" parent="WIyWlLk6GJQsqaUBKTNV-1" source="Oui1at55QBpjAnhqmStP-3" target="Oui1at55QBpjAnhqmStP-43" edge="1">
          <mxGeometry width="160" relative="1" as="geometry">
            <mxPoint x="590" y="570" as="sourcePoint" />
            <mxPoint x="750" y="570" as="targetPoint" />
          </mxGeometry>
        </mxCell>
        <mxCell id="Oui1at55QBpjAnhqmStP-54" value="Driver" style="swimlane;fontStyle=1;align=center;verticalAlign=top;childLayout=stackLayout;horizontal=1;startSize=26;horizontalStack=0;resizeParent=1;resizeParentMax=0;resizeLast=0;collapsible=1;marginBottom=0;whiteSpace=wrap;html=1;" parent="WIyWlLk6GJQsqaUBKTNV-1" vertex="1">
          <mxGeometry x="430" y="-270" width="160" height="60" as="geometry" />
        </mxCell>
        <mxCell id="Oui1at55QBpjAnhqmStP-56" value="" style="line;strokeWidth=1;fillColor=none;align=left;verticalAlign=middle;spacingTop=-1;spacingLeft=3;spacingRight=3;rotatable=0;labelPosition=right;points=[];portConstraint=eastwest;strokeColor=inherit;" parent="Oui1at55QBpjAnhqmStP-54" vertex="1">
          <mxGeometry y="26" width="160" height="8" as="geometry" />
        </mxCell>
        <mxCell id="Oui1at55QBpjAnhqmStP-57" value="+ main(String[]): void" style="text;strokeColor=none;fillColor=none;align=left;verticalAlign=top;spacingLeft=4;spacingRight=4;overflow=hidden;rotatable=0;points=[[0,0.5],[1,0.5]];portConstraint=eastwest;whiteSpace=wrap;html=1;" parent="Oui1at55QBpjAnhqmStP-54" vertex="1">
          <mxGeometry y="34" width="160" height="26" as="geometry" />
        </mxCell>
        <mxCell id="Oui1at55QBpjAnhqmStP-62" value="" style="endArrow=block;startArrow=block;endFill=1;startFill=1;html=1;rounded=0;exitX=0;exitY=0.5;exitDx=0;exitDy=0;entryX=0.5;entryY=0;entryDx=0;entryDy=0;" parent="WIyWlLk6GJQsqaUBKTNV-1" source="Oui1at55QBpjAnhqmStP-39" target="Oui1at55QBpjAnhqmStP-24" edge="1">
          <mxGeometry width="160" relative="1" as="geometry">
            <mxPoint x="650" y="140" as="sourcePoint" />
            <mxPoint x="810" y="140" as="targetPoint" />
            <Array as="points">
              <mxPoint x="350" />
              <mxPoint x="350" y="-30" />
              <mxPoint x="290" y="-30" />
            </Array>
          </mxGeometry>
        </mxCell>
        <mxCell id="Oui1at55QBpjAnhqmStP-63" value="" style="endArrow=open;endFill=1;endSize=12;html=1;rounded=0;exitX=1;exitY=0.5;exitDx=0;exitDy=0;entryX=-0.02;entryY=0.401;entryDx=0;entryDy=0;entryPerimeter=0;" parent="WIyWlLk6GJQsqaUBKTNV-1" source="Oui1at55QBpjAnhqmStP-25" target="Oui1at55QBpjAnhqmStP-31" edge="1">
          <mxGeometry width="160" relative="1" as="geometry">
            <mxPoint x="650" y="140" as="sourcePoint" />
            <mxPoint x="460" y="253" as="targetPoint" />
          </mxGeometry>
        </mxCell>
        <mxCell id="Oui1at55QBpjAnhqmStP-65" value="" style="endArrow=block;startArrow=block;endFill=1;startFill=1;html=1;rounded=0;exitX=0.506;exitY=1;exitDx=0;exitDy=0;exitPerimeter=0;entryX=0.5;entryY=0;entryDx=0;entryDy=0;" parent="WIyWlLk6GJQsqaUBKTNV-1" source="Oui1at55QBpjAnhqmStP-57" target="Oui1at55QBpjAnhqmStP-36" edge="1">
          <mxGeometry width="160" relative="1" as="geometry">
            <mxPoint x="770" as="sourcePoint" />
            <mxPoint x="620" y="-210" as="targetPoint" />
          </mxGeometry>
        </mxCell>
        <mxCell id="IA_j2BC_OJrB-lh-GhG8-0" value="" style="endArrow=block;dashed=1;endFill=0;endSize=12;html=1;rounded=0;exitX=0.512;exitY=0.997;exitDx=0;exitDy=0;exitPerimeter=0;entryX=0.203;entryY=-0.009;entryDx=0;entryDy=0;entryPerimeter=0;" parent="WIyWlLk6GJQsqaUBKTNV-1" source="Oui1at55QBpjAnhqmStP-27" target="Oui1at55QBpjAnhqmStP-2" edge="1">
          <mxGeometry width="160" relative="1" as="geometry">
            <mxPoint x="230" y="310" as="sourcePoint" />
            <mxPoint x="245" y="270" as="targetPoint" />
          </mxGeometry>
        </mxCell>
        <mxCell id="IA_j2BC_OJrB-lh-GhG8-1" value="" style="endArrow=open;endFill=1;endSize=12;html=1;rounded=0;exitX=0.195;exitY=1.068;exitDx=0;exitDy=0;exitPerimeter=0;entryX=0.725;entryY=-0.019;entryDx=0;entryDy=0;entryPerimeter=0;" parent="WIyWlLk6GJQsqaUBKTNV-1" source="Oui1at55QBpjAnhqmStP-31" target="Oui1at55QBpjAnhqmStP-2" edge="1">
          <mxGeometry width="160" relative="1" as="geometry">
            <mxPoint x="290" y="300" as="sourcePoint" />
            <mxPoint x="450" y="300" as="targetPoint" />
          </mxGeometry>
        </mxCell>
        <mxCell id="IA_j2BC_OJrB-lh-GhG8-2" value="" style="endArrow=open;endFill=1;endSize=12;html=1;rounded=0;exitX=0.504;exitY=1.003;exitDx=0;exitDy=0;exitPerimeter=0;entryX=0.625;entryY=-0.023;entryDx=0;entryDy=0;entryPerimeter=0;" parent="WIyWlLk6GJQsqaUBKTNV-1" source="Oui1at55QBpjAnhqmStP-39" target="Oui1at55QBpjAnhqmStP-2" edge="1">
          <mxGeometry width="160" relative="1" as="geometry">
            <mxPoint x="290" y="240" as="sourcePoint" />
            <mxPoint x="450" y="240" as="targetPoint" />
            <Array as="points">
              <mxPoint x="380" y="150" />
            </Array>
          </mxGeometry>
        </mxCell>
        <mxCell id="IA_j2BC_OJrB-lh-GhG8-3" value="" style="endArrow=open;endFill=1;endSize=12;html=1;rounded=0;exitX=0.253;exitY=1;exitDx=0;exitDy=0;exitPerimeter=0;entryX=0.75;entryY=0;entryDx=0;entryDy=0;" parent="WIyWlLk6GJQsqaUBKTNV-1" source="Oui1at55QBpjAnhqmStP-20" target="Oui1at55QBpjAnhqmStP-43" edge="1">
          <mxGeometry width="160" relative="1" as="geometry">
            <mxPoint x="220" y="450" as="sourcePoint" />
            <mxPoint x="380" y="450" as="targetPoint" />
          </mxGeometry>
        </mxCell>
        <mxCell id="LGCt4wQH7IyuHMlrlaV7-0" value="CoordSet" style="swimlane;fontStyle=1;align=center;verticalAlign=top;childLayout=stackLayout;horizontal=1;startSize=26;horizontalStack=0;resizeParent=1;resizeParentMax=0;resizeLast=0;collapsible=1;marginBottom=0;whiteSpace=wrap;html=1;" parent="WIyWlLk6GJQsqaUBKTNV-1" vertex="1">
          <mxGeometry x="480" y="970" width="160" height="110" as="geometry" />
        </mxCell>
        <mxCell id="LGCt4wQH7IyuHMlrlaV7-1" value="+ start: Coord&lt;br&gt;+ end: Coord" style="text;strokeColor=none;fillColor=none;align=left;verticalAlign=top;spacingLeft=4;spacingRight=4;overflow=hidden;rotatable=0;points=[[0,0.5],[1,0.5]];portConstraint=eastwest;whiteSpace=wrap;html=1;" parent="LGCt4wQH7IyuHMlrlaV7-0" vertex="1">
          <mxGeometry y="26" width="160" height="34" as="geometry" />
        </mxCell>
        <mxCell id="LGCt4wQH7IyuHMlrlaV7-2" value="" style="line;strokeWidth=1;fillColor=none;align=left;verticalAlign=middle;spacingTop=-1;spacingLeft=3;spacingRight=3;rotatable=0;labelPosition=right;points=[];portConstraint=eastwest;strokeColor=inherit;" parent="LGCt4wQH7IyuHMlrlaV7-0" vertex="1">
          <mxGeometry y="60" width="160" height="8" as="geometry" />
        </mxCell>
        <mxCell id="LGCt4wQH7IyuHMlrlaV7-3" value="+ getStart(): Coord&lt;br&gt;+ getEnd(): Coord" style="text;strokeColor=none;fillColor=none;align=left;verticalAlign=top;spacingLeft=4;spacingRight=4;overflow=hidden;rotatable=0;points=[[0,0.5],[1,0.5]];portConstraint=eastwest;whiteSpace=wrap;html=1;" parent="LGCt4wQH7IyuHMlrlaV7-0" vertex="1">
          <mxGeometry y="68" width="160" height="42" as="geometry" />
        </mxCell>
        <mxCell id="LGCt4wQH7IyuHMlrlaV7-4" value="" style="endArrow=classic;html=1;rounded=0;entryX=0.5;entryY=0;entryDx=0;entryDy=0;exitX=0.475;exitY=1.062;exitDx=0;exitDy=0;exitPerimeter=0;" parent="WIyWlLk6GJQsqaUBKTNV-1" source="Oui1at55QBpjAnhqmStP-46" target="LGCt4wQH7IyuHMlrlaV7-0" edge="1">
          <mxGeometry width="50" height="50" relative="1" as="geometry">
            <mxPoint x="380" y="690" as="sourcePoint" />
            <mxPoint x="430" y="640" as="targetPoint" />
          </mxGeometry>
        </mxCell>
        <mxCell id="LGCt4wQH7IyuHMlrlaV7-5" value="Extends" style="endArrow=block;endSize=16;endFill=0;html=1;rounded=0;entryX=0.279;entryY=1.017;entryDx=0;entryDy=0;entryPerimeter=0;" parent="WIyWlLk6GJQsqaUBKTNV-1" target="Oui1at55QBpjAnhqmStP-3" edge="1">
          <mxGeometry width="160" relative="1" as="geometry">
            <mxPoint x="180" y="840" as="sourcePoint" />
            <mxPoint x="490" y="670" as="targetPoint" />
          </mxGeometry>
        </mxCell>
        <mxCell id="LGCt4wQH7IyuHMlrlaV7-7" value="&lt;b style=&quot;border-color: var(--border-color);&quot;&gt;PlayerAI&lt;/b&gt;" style="swimlane;fontStyle=1;align=center;verticalAlign=top;childLayout=stackLayout;horizontal=1;startSize=26;horizontalStack=0;resizeParent=1;resizeParentMax=0;resizeLast=0;collapsible=1;marginBottom=0;whiteSpace=wrap;html=1;" parent="WIyWlLk6GJQsqaUBKTNV-1" vertex="1">
          <mxGeometry x="90" y="840" width="160" height="110" as="geometry" />
        </mxCell>
        <mxCell id="LGCt4wQH7IyuHMlrlaV7-8" value="+ ai: AIPlayer" style="text;strokeColor=none;fillColor=none;align=left;verticalAlign=top;spacingLeft=4;spacingRight=4;overflow=hidden;rotatable=0;points=[[0,0.5],[1,0.5]];portConstraint=eastwest;whiteSpace=wrap;html=1;" parent="LGCt4wQH7IyuHMlrlaV7-7" vertex="1">
          <mxGeometry y="26" width="160" height="34" as="geometry" />
        </mxCell>
        <mxCell id="LGCt4wQH7IyuHMlrlaV7-9" value="" style="line;strokeWidth=1;fillColor=none;align=left;verticalAlign=middle;spacingTop=-1;spacingLeft=3;spacingRight=3;rotatable=0;labelPosition=right;points=[];portConstraint=eastwest;strokeColor=inherit;" parent="LGCt4wQH7IyuHMlrlaV7-7" vertex="1">
          <mxGeometry y="60" width="160" height="8" as="geometry" />
        </mxCell>
        <mxCell id="LGCt4wQH7IyuHMlrlaV7-10" value="+ takeShots() - List&amp;lt;Coord&amp;gt;" style="text;strokeColor=none;fillColor=none;align=left;verticalAlign=top;spacingLeft=4;spacingRight=4;overflow=hidden;rotatable=0;points=[[0,0.5],[1,0.5]];portConstraint=eastwest;whiteSpace=wrap;html=1;" parent="LGCt4wQH7IyuHMlrlaV7-7" vertex="1">
          <mxGeometry y="68" width="160" height="42" as="geometry" />
        </mxCell>
        <mxCell id="LGCt4wQH7IyuHMlrlaV7-11" value="&lt;b style=&quot;border-color: var(--border-color);&quot;&gt;PlayerHuman&lt;/b&gt;" style="swimlane;fontStyle=1;align=center;verticalAlign=top;childLayout=stackLayout;horizontal=1;startSize=26;horizontalStack=0;resizeParent=1;resizeParentMax=0;resizeLast=0;collapsible=1;marginBottom=0;whiteSpace=wrap;html=1;" parent="WIyWlLk6GJQsqaUBKTNV-1" vertex="1">
          <mxGeometry x="280" y="840" width="160" height="110" as="geometry" />
        </mxCell>
        <mxCell id="LGCt4wQH7IyuHMlrlaV7-12" value="+ readable: Readable&lt;br&gt;+ controller: Controller" style="text;strokeColor=none;fillColor=none;align=left;verticalAlign=top;spacingLeft=4;spacingRight=4;overflow=hidden;rotatable=0;points=[[0,0.5],[1,0.5]];portConstraint=eastwest;whiteSpace=wrap;html=1;" parent="LGCt4wQH7IyuHMlrlaV7-11" vertex="1">
          <mxGeometry y="26" width="160" height="34" as="geometry" />
        </mxCell>
        <mxCell id="LGCt4wQH7IyuHMlrlaV7-13" value="" style="line;strokeWidth=1;fillColor=none;align=left;verticalAlign=middle;spacingTop=-1;spacingLeft=3;spacingRight=3;rotatable=0;labelPosition=right;points=[];portConstraint=eastwest;strokeColor=inherit;" parent="LGCt4wQH7IyuHMlrlaV7-11" vertex="1">
          <mxGeometry y="60" width="160" height="8" as="geometry" />
        </mxCell>
        <mxCell id="LGCt4wQH7IyuHMlrlaV7-14" value="+ takeShots() - List&amp;lt;Coord&amp;gt;" style="text;strokeColor=none;fillColor=none;align=left;verticalAlign=top;spacingLeft=4;spacingRight=4;overflow=hidden;rotatable=0;points=[[0,0.5],[1,0.5]];portConstraint=eastwest;whiteSpace=wrap;html=1;" parent="LGCt4wQH7IyuHMlrlaV7-11" vertex="1">
          <mxGeometry y="68" width="160" height="42" as="geometry" />
        </mxCell>
        <mxCell id="LGCt4wQH7IyuHMlrlaV7-15" value="Extends" style="endArrow=block;endSize=16;endFill=0;html=1;rounded=0;entryX=0.75;entryY=1;entryDx=0;entryDy=0;exitX=0.5;exitY=0;exitDx=0;exitDy=0;" parent="WIyWlLk6GJQsqaUBKTNV-1" source="LGCt4wQH7IyuHMlrlaV7-11" target="Oui1at55QBpjAnhqmStP-3" edge="1">
          <mxGeometry width="160" relative="1" as="geometry">
            <mxPoint x="190" y="850" as="sourcePoint" />
            <mxPoint x="246" y="682" as="targetPoint" />
          </mxGeometry>
        </mxCell>
        <mxCell id="LGCt4wQH7IyuHMlrlaV7-16" value="AIPlayer" style="swimlane;fontStyle=1;align=center;verticalAlign=top;childLayout=stackLayout;horizontal=1;startSize=26;horizontalStack=0;resizeParent=1;resizeParentMax=0;resizeLast=0;collapsible=1;marginBottom=0;whiteSpace=wrap;html=1;" parent="WIyWlLk6GJQsqaUBKTNV-1" vertex="1">
          <mxGeometry x="680" y="200" width="240" height="130" as="geometry" />
        </mxCell>
        <mxCell id="LGCt4wQH7IyuHMlrlaV7-17" value="+ availableShots: List&amp;lt;Coords&amp;gt;&lt;br&gt;+ rand: Random" style="text;strokeColor=none;fillColor=none;align=left;verticalAlign=top;spacingLeft=4;spacingRight=4;overflow=hidden;rotatable=0;points=[[0,0.5],[1,0.5]];portConstraint=eastwest;whiteSpace=wrap;html=1;" parent="LGCt4wQH7IyuHMlrlaV7-16" vertex="1">
          <mxGeometry y="26" width="240" height="54" as="geometry" />
        </mxCell>
        <mxCell id="LGCt4wQH7IyuHMlrlaV7-18" value="" style="line;strokeWidth=1;fillColor=none;align=left;verticalAlign=middle;spacingTop=-1;spacingLeft=3;spacingRight=3;rotatable=0;labelPosition=right;points=[];portConstraint=eastwest;strokeColor=inherit;" parent="LGCt4wQH7IyuHMlrlaV7-16" vertex="1">
          <mxGeometry y="80" width="240" height="8" as="geometry" />
        </mxCell>
        <mxCell id="LGCt4wQH7IyuHMlrlaV7-19" value="+ generateAIBoard: void&lt;br&gt;+ generateShot(): Coord" style="text;strokeColor=none;fillColor=none;align=left;verticalAlign=top;spacingLeft=4;spacingRight=4;overflow=hidden;rotatable=0;points=[[0,0.5],[1,0.5]];portConstraint=eastwest;whiteSpace=wrap;html=1;" parent="LGCt4wQH7IyuHMlrlaV7-16" vertex="1">
          <mxGeometry y="88" width="240" height="42" as="geometry" />
        </mxCell>
        <mxCell id="LGCt4wQH7IyuHMlrlaV7-20" value="" style="endArrow=open;endFill=1;endSize=12;html=1;rounded=0;exitX=1;exitY=0.5;exitDx=0;exitDy=0;entryX=0.5;entryY=0;entryDx=0;entryDy=0;" parent="WIyWlLk6GJQsqaUBKTNV-1" source="Oui1at55QBpjAnhqmStP-37" target="LGCt4wQH7IyuHMlrlaV7-16" edge="1">
          <mxGeometry width="160" relative="1" as="geometry">
            <mxPoint x="330" y="190" as="sourcePoint" />
            <mxPoint x="490" y="190" as="targetPoint" />
          </mxGeometry>
        </mxCell>
        <mxCell id="LGCt4wQH7IyuHMlrlaV7-21" value="" style="endArrow=open;endFill=1;endSize=12;html=1;rounded=0;exitX=0.789;exitY=1.006;exitDx=0;exitDy=0;exitPerimeter=0;entryX=0.446;entryY=1.076;entryDx=0;entryDy=0;entryPerimeter=0;" parent="WIyWlLk6GJQsqaUBKTNV-1" source="Oui1at55QBpjAnhqmStP-27" target="LGCt4wQH7IyuHMlrlaV7-19" edge="1">
          <mxGeometry width="160" relative="1" as="geometry">
            <mxPoint x="320" y="350" as="sourcePoint" />
            <mxPoint x="890" y="370" as="targetPoint" />
            <Array as="points">
              <mxPoint x="340" y="340" />
              <mxPoint x="790" y="360" />
            </Array>
          </mxGeometry>
        </mxCell>
        <mxCell id="LGCt4wQH7IyuHMlrlaV7-22" value="" style="endArrow=open;endFill=1;endSize=12;html=1;rounded=0;exitX=0.497;exitY=0.992;exitDx=0;exitDy=0;exitPerimeter=0;entryX=0.809;entryY=1.132;entryDx=0;entryDy=0;entryPerimeter=0;" parent="WIyWlLk6GJQsqaUBKTNV-1" source="LGCt4wQH7IyuHMlrlaV7-10" target="LGCt4wQH7IyuHMlrlaV7-19" edge="1">
          <mxGeometry width="160" relative="1" as="geometry">
            <mxPoint x="330" y="670" as="sourcePoint" />
            <mxPoint x="840" y="1090" as="targetPoint" />
            <Array as="points">
              <mxPoint x="170" y="1100" />
              <mxPoint x="800" y="1090" />
            </Array>
          </mxGeometry>
        </mxCell>
        <mxCell id="LGCt4wQH7IyuHMlrlaV7-23" value="&lt;p style=&quot;margin:0px;margin-top:4px;text-align:center;text-decoration:underline;&quot;&gt;&lt;b&gt;Object:GameResult&lt;/b&gt;&lt;/p&gt;&lt;hr&gt;&lt;p style=&quot;margin:0px;margin-left:8px;&quot;&gt;WIN&lt;/p&gt;&lt;p style=&quot;margin:0px;margin-left:8px;&quot;&gt;DRAW&lt;/p&gt;&lt;p style=&quot;margin:0px;margin-left:8px;&quot;&gt;LOSE&lt;/p&gt;" style="verticalAlign=top;align=left;overflow=fill;fontSize=12;fontFamily=Helvetica;html=1;whiteSpace=wrap;" parent="WIyWlLk6GJQsqaUBKTNV-1" vertex="1">
          <mxGeometry x="660" y="750" width="160" height="100" as="geometry" />
        </mxCell>
        <mxCell id="ZTjdDTUPeJI5eWQ_adc6-0" value="ProxyController&lt;br&gt;" style="swimlane;fontStyle=1;align=center;verticalAlign=top;childLayout=stackLayout;horizontal=1;startSize=26;horizontalStack=0;resizeParent=1;resizeParentMax=0;resizeLast=0;collapsible=1;marginBottom=0;whiteSpace=wrap;html=1;" vertex="1" parent="WIyWlLk6GJQsqaUBKTNV-1">
          <mxGeometry x="800" y="-130" width="160" height="144" as="geometry" />
        </mxCell>
        <mxCell id="ZTjdDTUPeJI5eWQ_adc6-1" value="+ server: Socket&lt;br&gt;+ in: InputStream&lt;br&gt;+ out: PrintStream&lt;br&gt;+ player: Player&lt;br&gt;+ mapper: ObjectMapper" style="text;strokeColor=none;fillColor=none;align=left;verticalAlign=top;spacingLeft=4;spacingRight=4;overflow=hidden;rotatable=0;points=[[0,0.5],[1,0.5]];portConstraint=eastwest;whiteSpace=wrap;html=1;" vertex="1" parent="ZTjdDTUPeJI5eWQ_adc6-0">
          <mxGeometry y="26" width="160" height="84" as="geometry" />
        </mxCell>
        <mxCell id="ZTjdDTUPeJI5eWQ_adc6-2" value="" style="line;strokeWidth=1;fillColor=none;align=left;verticalAlign=middle;spacingTop=-1;spacingLeft=3;spacingRight=3;rotatable=0;labelPosition=right;points=[];portConstraint=eastwest;strokeColor=inherit;" vertex="1" parent="ZTjdDTUPeJI5eWQ_adc6-0">
          <mxGeometry y="110" width="160" height="8" as="geometry" />
        </mxCell>
        <mxCell id="ZTjdDTUPeJI5eWQ_adc6-3" value="+ run(): void" style="text;strokeColor=none;fillColor=none;align=left;verticalAlign=top;spacingLeft=4;spacingRight=4;overflow=hidden;rotatable=0;points=[[0,0.5],[1,0.5]];portConstraint=eastwest;whiteSpace=wrap;html=1;" vertex="1" parent="ZTjdDTUPeJI5eWQ_adc6-0">
          <mxGeometry y="118" width="160" height="26" as="geometry" />
        </mxCell>
        <mxCell id="ZTjdDTUPeJI5eWQ_adc6-5" value="" style="endArrow=open;endFill=1;endSize=12;html=1;rounded=0;exitX=0.685;exitY=1.099;exitDx=0;exitDy=0;exitPerimeter=0;entryX=0.913;entryY=-0.016;entryDx=0;entryDy=0;entryPerimeter=0;" edge="1" parent="WIyWlLk6GJQsqaUBKTNV-1" source="ZTjdDTUPeJI5eWQ_adc6-3" target="Oui1at55QBpjAnhqmStP-2">
          <mxGeometry width="160" relative="1" as="geometry">
            <mxPoint x="690" y="40" as="sourcePoint" />
            <mxPoint x="950" y="363.4782608695652" as="targetPoint" />
            <Array as="points">
              <mxPoint x="956" y="368" />
            </Array>
          </mxGeometry>
        </mxCell>
        <mxCell id="ZTjdDTUPeJI5eWQ_adc6-6" value="" style="endArrow=open;endFill=1;endSize=12;html=1;rounded=0;exitX=0.997;exitY=0.851;exitDx=0;exitDy=0;exitPerimeter=0;entryX=0.25;entryY=0;entryDx=0;entryDy=0;" edge="1" parent="WIyWlLk6GJQsqaUBKTNV-1" source="Oui1at55QBpjAnhqmStP-57" target="ZTjdDTUPeJI5eWQ_adc6-0">
          <mxGeometry width="160" relative="1" as="geometry">
            <mxPoint x="590" y="-220" as="sourcePoint" />
            <mxPoint x="870" y="-180" as="targetPoint" />
            <Array as="points">
              <mxPoint x="870" y="-210" />
            </Array>
          </mxGeometry>
        </mxCell>
        <mxCell id="ZTjdDTUPeJI5eWQ_adc6-7" value="JsonFile" style="shape=folder;fontStyle=1;spacingTop=10;tabWidth=40;tabHeight=14;tabPosition=left;html=1;whiteSpace=wrap;" vertex="1" parent="WIyWlLk6GJQsqaUBKTNV-1">
          <mxGeometry x="1030" y="50" width="120" height="80" as="geometry" />
        </mxCell>
        <mxCell id="ZTjdDTUPeJI5eWQ_adc6-8" value="" style="endArrow=open;endFill=1;endSize=12;html=1;rounded=0;exitX=1;exitY=1.032;exitDx=0;exitDy=0;exitPerimeter=0;entryX=0;entryY=0;entryDx=0;entryDy=23;entryPerimeter=0;" edge="1" parent="WIyWlLk6GJQsqaUBKTNV-1" source="ZTjdDTUPeJI5eWQ_adc6-3" target="ZTjdDTUPeJI5eWQ_adc6-7">
          <mxGeometry width="160" relative="1" as="geometry">
            <mxPoint x="690" y="-20" as="sourcePoint" />
            <mxPoint x="850" y="-20" as="targetPoint" />
          </mxGeometry>
        </mxCell>
      </root>
    </mxGraphModel>
  </diagram>
</mxfile>
